<svg width="216" height="128" viewBox="0 0 216 128" fill="none" xmlns="http://www.w3.org/2000/svg">
<g clip-path="url(#clip0_2939_198)">
<path d="M141.687 0.3125H74.9802V67.4607H141.687V0.3125Z" fill="#E4003C"/>
<path d="M108.322 0.3125H74.9802V33.8747H108.322V0.3125Z" fill="white"/>
<path d="M95.357 117.958L96.51 121.487H100.204L97.2159 123.666L98.3453 127.195L95.357 125.016L92.3922 127.195L93.5217 123.666L90.5334 121.487H94.2276L95.357 117.958Z" fill="#FBFBFB"/>
<path d="M108.322 117.958L109.451 121.487H113.146L110.181 123.666L111.31 127.195L108.322 125.016L105.334 127.195L106.487 123.666L103.498 121.487H107.193L108.322 117.958Z" fill="#FBFBFB"/>
<path d="M121.287 117.958L122.416 121.487H126.111L123.122 123.666L124.275 127.195L121.287 125.016L118.299 127.195L119.428 123.666L116.463 121.487H120.157L121.287 117.958Z" fill="#FBFBFB"/>
<path d="M6.24945 87.1672H14.932V81.7906C14.932 80.8195 14.8849 80.2037 14.7437 79.8957C14.6496 79.6589 14.4614 79.4694 14.1555 79.3036C13.779 79.0667 13.3555 78.9483 12.9319 78.9483H12.2731V78.4272H20.2732V78.9483H19.5909C19.1438 78.9483 18.7203 79.0431 18.3438 79.2562C18.0614 79.3984 17.8497 79.6352 17.732 79.9194C17.6144 80.2037 17.5673 80.8432 17.5673 81.7669V93.9175C17.5673 94.8649 17.6379 95.5044 17.7555 95.8123C17.8497 96.0492 18.0379 96.2387 18.3203 96.4045C18.7203 96.6176 19.1438 96.7361 19.5909 96.7361H20.2497V97.2572H12.2496V96.7361H12.9319C13.6849 96.7361 14.2496 96.4992 14.6025 96.0492C14.8378 95.765 14.9555 95.0307 14.9555 93.9175V88.1856H6.24945V93.9175C6.24945 94.8649 6.29651 95.5044 6.43769 95.8123C6.53181 96.0492 6.72004 96.2387 7.02593 96.4045C7.42594 96.6176 7.84948 96.7361 8.27302 96.7361H8.93185V97.2572H0.931702V96.7361H1.59054C2.36702 96.7361 2.93174 96.4992 3.28469 96.0492C3.49646 95.765 3.6141 95.0307 3.6141 93.9175V81.7906C3.6141 80.8195 3.56704 80.2037 3.42587 79.8957C3.33175 79.6589 3.14351 79.4694 2.86115 79.3036C2.46114 79.0904 2.0376 78.972 1.59054 78.972H0.931702V78.4509H8.93185V78.972H8.27302C7.82595 78.972 7.42594 79.0668 7.02593 79.2799C6.74357 79.422 6.55534 79.6589 6.43769 79.9431C6.32004 80.2273 6.27298 80.8668 6.27298 81.7906L6.24945 87.1672Z" fill="#FBFBFB"/>
<path d="M27.3322 84.1826C29.2381 84.1826 30.7911 84.9169 31.9441 86.3854C32.9323 87.6407 33.4264 89.0618 33.4264 90.6961C33.4264 91.833 33.1441 92.9936 32.6029 94.1542C32.0617 95.3148 31.3088 96.1911 30.3676 96.7833C29.4264 97.3754 28.3675 97.6833 27.191 97.6833C25.2851 97.6833 23.7792 96.9254 22.6498 95.3858C21.7086 94.1068 21.238 92.662 21.238 91.0514C21.238 89.8908 21.5203 88.7302 22.1086 87.5696C22.6968 86.409 23.4263 85.5564 24.3674 85.0116C25.3086 84.4668 26.2734 84.1826 27.3322 84.1826ZM26.2263 78.0481H28.7675L31.3793 82.6431H30.9558L27.191 79.6824L24.038 82.6431H23.6145L26.2263 78.0481ZM26.9087 85.0827C26.4145 85.0827 25.9204 85.2248 25.4498 85.5327C24.9792 85.8406 24.5557 86.338 24.2498 87.0722C23.9439 87.8065 23.8027 88.7539 23.8027 89.8908C23.8027 91.7383 24.1557 93.3489 24.9086 94.6753C25.6616 96.0016 26.6028 96.6885 27.8028 96.6885C28.6969 96.6885 29.4264 96.3096 30.0146 95.5753C30.6029 94.8411 30.8852 93.562 30.8852 91.762C30.8852 89.5118 30.3911 87.7354 29.4264 86.4327C28.744 85.509 27.9205 85.0827 26.9087 85.0827Z" fill="#FBFBFB"/>
<path d="M38.3677 80.3694V84.538H41.3089V85.5091H38.3677V93.7517C38.3677 94.5806 38.4853 95.1254 38.7206 95.4096C38.9559 95.6939 39.2618 95.836 39.6148 95.836C39.9207 95.836 40.203 95.7412 40.5089 95.5517C40.8148 95.3623 41.0266 95.078 41.1677 94.7228H41.7089C41.3795 95.6228 40.9324 96.3097 40.3442 96.7597C39.756 97.2097 39.1442 97.4466 38.5324 97.4466C38.1089 97.4466 37.7089 97.3281 37.2853 97.0913C36.8618 96.8544 36.5794 96.5228 36.3912 96.0728C36.2029 95.6228 36.1088 94.9596 36.1088 94.0359V85.4854H34.1088V85.0354C34.6265 84.8222 35.1441 84.4907 35.6618 83.9933C36.1794 83.4959 36.65 82.9274 37.0736 82.2642C37.2853 81.9089 37.5912 81.2694 37.9677 80.3457L38.3677 80.3694Z" fill="#FBFBFB"/>
<path d="M44.109 89.3224C44.109 91.2172 44.5561 92.6857 45.4737 93.7752C46.3914 94.8647 47.4738 95.3858 48.7208 95.3858C49.5444 95.3858 50.2738 95.149 50.8856 94.6989C51.4974 94.2489 52.015 93.4673 52.415 92.3541L52.8386 92.6383C52.6503 93.8936 52.0856 95.0542 51.1444 96.0964C50.2032 97.1385 49.0503 97.6596 47.662 97.6596C46.1326 97.6596 44.8384 97.0675 43.7796 95.8832C42.7207 94.6989 42.156 93.0883 42.156 91.0988C42.156 88.9197 42.7207 87.238 43.8266 86.0064C44.9325 84.7748 46.3208 84.1589 47.9914 84.1589C49.4032 84.1589 50.5797 84.6326 51.4738 85.5801C52.368 86.5275 52.8386 87.7828 52.8386 89.346L44.109 89.3224ZM44.109 88.5407H49.9444C49.8973 87.7354 49.8032 87.1433 49.662 86.8117C49.4267 86.2906 49.0973 85.888 48.6267 85.5801C48.1561 85.2721 47.6855 85.13 47.1914 85.13C46.4384 85.13 45.7561 85.4379 45.1443 86.0301C44.5325 86.6222 44.2031 87.4749 44.109 88.5407Z" fill="#FBFBFB"/>
<path d="M58.2975 77.5271V94.3911C58.2975 95.1964 58.3445 95.7175 58.4622 95.978C58.5798 96.2386 58.7445 96.4281 59.0034 96.5702C59.2622 96.7123 59.6857 96.7597 60.3446 96.7597V97.2571H54.1562V96.7597C54.7445 96.7597 55.121 96.6886 55.3327 96.5702C55.5445 96.4517 55.7092 96.2623 55.8268 95.978C55.9445 95.6938 56.0151 95.1727 56.0151 94.3911V82.8563C56.0151 81.4352 55.9916 80.5351 55.921 80.2036C55.8504 79.872 55.7563 79.6588 55.6151 79.5404C55.4739 79.4219 55.2857 79.3509 55.0739 79.3509C54.8386 79.3509 54.5327 79.4219 54.1562 79.564L53.9209 79.0667L57.6857 77.5034L58.2975 77.5271Z" fill="#FBFBFB"/>
<path d="M69.6624 78.9483V78.4272H77.6626V78.9483H76.9802C76.2272 78.9483 75.6625 79.1852 75.3096 79.6352C75.0978 79.9194 74.9801 80.6537 74.9801 81.7669V90.9568C74.9801 92.378 74.839 93.5149 74.5096 94.3912C74.1801 95.2676 73.6625 96.0255 72.9095 96.6887C72.1566 97.3519 71.2389 97.6598 70.1801 97.6598C69.3095 97.6598 68.6271 97.4466 68.133 97.0203C67.6388 96.594 67.38 96.0966 67.38 95.5518C67.38 95.1018 67.4977 94.7465 67.733 94.5333C68.0388 94.2491 68.3918 94.107 68.7918 94.107C69.0742 94.107 69.3565 94.2017 69.5918 94.3912C69.8271 94.5807 70.133 95.1018 70.4859 95.9545C70.6977 96.4519 70.9801 96.7124 71.3095 96.7124C71.5448 96.7124 71.7801 96.5703 72.0154 96.2624C72.2507 95.9545 72.3448 95.4097 72.3448 94.6281V81.7669C72.3448 80.8195 72.2742 80.18 72.1566 79.8721C72.0624 79.6352 71.8742 79.4457 71.5683 79.2799C71.1683 79.0668 70.7448 78.9483 70.3212 78.9483H69.6624Z" fill="#FBFBFB"/>
<path d="M80.2744 89.3224C80.2744 91.2172 80.7214 92.6857 81.6391 93.7752C82.5568 94.8411 83.6391 95.3858 84.8862 95.3858C85.7098 95.3858 86.4392 95.149 87.051 94.6989C87.6627 94.2489 88.1804 93.4673 88.5804 92.3541L89.0039 92.6383C88.8157 93.8936 88.251 95.0542 87.3098 96.0964C86.3921 97.1385 85.2156 97.6596 83.8274 97.6596C82.2979 97.6596 81.0038 97.0675 79.9449 95.8832C78.8861 94.6989 78.3214 93.0883 78.3214 91.0988C78.3214 88.9197 78.8861 87.238 79.992 86.0064C81.0979 84.7748 82.4862 84.1826 84.1568 84.1826C85.5686 84.1826 86.7451 84.6563 87.6392 85.6037C88.5569 86.5512 89.0039 87.8065 89.0039 89.3697L80.2744 89.3224ZM80.2744 88.5407H86.1098C86.0627 87.7354 85.9686 87.1433 85.8274 86.8117C85.5921 86.2906 85.2627 85.888 84.7921 85.5801C84.3215 85.2721 83.8509 85.13 83.3568 85.13C82.6038 85.13 81.9214 85.4379 81.3097 86.0301C80.7214 86.6222 80.3685 87.4749 80.2744 88.5407Z" fill="#FBFBFB"/>
<path d="M97.2865 95.4332C95.9923 96.4517 95.1688 97.0201 94.8394 97.1859C94.3452 97.4228 93.8041 97.5412 93.2629 97.5412C92.3923 97.5412 91.6628 97.2333 91.0981 96.6411C90.5334 96.049 90.251 95.2437 90.251 94.2726C90.251 93.6568 90.3922 93.112 90.6746 92.662C91.0511 92.0225 91.7099 91.4304 92.6511 90.8856C93.5923 90.3408 95.1452 89.6539 97.31 88.8723V88.3749C97.31 87.1196 97.1218 86.2432 96.7217 85.7695C96.3217 85.2958 95.7335 85.059 94.9805 85.059C94.3923 85.059 93.9452 85.2248 93.5923 85.5327C93.2393 85.8406 93.0746 86.1959 93.0746 86.6222L93.0981 87.4275C93.0981 87.8538 92.9805 88.1854 92.7687 88.4223C92.557 88.6592 92.2746 88.7776 91.9217 88.7776C91.5687 88.7776 91.3099 88.6592 91.0981 88.4223C90.8863 88.1854 90.7687 87.8538 90.7687 87.4275C90.7687 86.6222 91.1687 85.888 91.9923 85.2248C92.7923 84.5616 93.9452 84.23 95.4041 84.23C96.5335 84.23 97.4512 84.4195 98.1571 84.7984C98.6983 85.0827 99.0983 85.5327 99.3571 86.1485C99.5218 86.5512 99.6159 87.3565 99.6159 88.5881V92.8988C99.6159 94.1068 99.6395 94.8647 99.6865 95.1253C99.7336 95.3858 99.8042 95.5753 99.9218 95.67C100.039 95.7648 100.157 95.8121 100.275 95.8121C100.416 95.8121 100.557 95.7885 100.651 95.7174C100.839 95.599 101.216 95.2674 101.757 94.6989V95.4806C100.722 96.878 99.7336 97.5649 98.8159 97.5649C98.3688 97.5649 98.0159 97.3991 97.7335 97.0912C97.4512 96.7833 97.2865 96.1911 97.2865 95.4332ZM97.2865 94.5331V89.6776C95.8982 90.2224 95.0041 90.625 94.6041 90.8619C93.8746 91.2645 93.357 91.6909 93.0511 92.1409C92.7452 92.5909 92.5805 93.0646 92.5805 93.6094C92.5805 94.2726 92.7687 94.8174 93.1687 95.2674C93.5688 95.7174 94.0158 95.9306 94.5335 95.9306C95.2158 95.9069 96.1335 95.4569 97.2865 94.5331Z" fill="#FBFBFB"/>
<path d="M105.781 86.8591C107.263 85.059 108.675 84.1589 110.016 84.1589C110.698 84.1589 111.287 84.3247 111.804 84.68C112.322 85.0353 112.699 85.6038 112.981 86.3854C113.193 86.9301 113.287 87.7828 113.287 88.9434V94.3674C113.287 95.1727 113.357 95.7174 113.475 96.0017C113.569 96.2385 113.734 96.4043 113.969 96.5464C114.204 96.6885 114.604 96.7359 115.216 96.7359V97.2333H108.981V96.7359H109.24C109.828 96.7359 110.251 96.6411 110.463 96.4754C110.675 96.3096 110.863 96.0253 110.957 95.67C111.004 95.5279 111.004 95.1016 111.004 94.3674V89.1566C111.004 87.996 110.863 87.167 110.557 86.6459C110.251 86.1248 109.757 85.8643 109.051 85.8643C107.969 85.8643 106.863 86.4564 105.781 87.6644V94.3674C105.781 95.22 105.828 95.7648 105.922 95.9543C106.063 96.2148 106.228 96.428 106.463 96.5464C106.698 96.6648 107.145 96.7359 107.828 96.7359V97.2333H101.592V96.7359H101.875C102.51 96.7359 102.957 96.5701 103.169 96.2385C103.381 95.9069 103.498 95.2911 103.498 94.3674V89.654C103.498 88.1144 103.475 87.1907 103.404 86.8591C103.334 86.5275 103.24 86.2906 103.075 86.1722C102.91 86.0538 102.745 85.9827 102.51 85.9827C102.251 85.9827 101.945 86.0538 101.592 86.1959L101.381 85.6985L105.192 84.1353H105.781V86.8591V86.8591Z" fill="#FBFBFB"/>
<path d="M119.334 86.8591C120.816 85.059 122.228 84.1589 123.569 84.1589C124.252 84.1589 124.84 84.3247 125.358 84.68C125.875 85.0353 126.252 85.6038 126.534 86.3854C126.746 86.9301 126.84 87.7828 126.84 88.9434V94.3674C126.84 95.1727 126.911 95.7174 127.028 96.0017C127.122 96.2385 127.287 96.4043 127.522 96.5464C127.758 96.6885 128.158 96.7359 128.769 96.7359V97.2333H122.534V96.7359H122.793C123.381 96.7359 123.805 96.6411 124.016 96.4754C124.228 96.3096 124.416 96.0253 124.51 95.67C124.558 95.5279 124.558 95.1016 124.558 94.3674V89.1566C124.558 87.996 124.416 87.167 124.11 86.6459C123.805 86.1248 123.31 85.8643 122.605 85.8643C121.522 85.8643 120.416 86.4564 119.334 87.6644V94.3674C119.334 95.22 119.381 95.7648 119.475 95.9543C119.616 96.2148 119.781 96.428 120.016 96.5464C120.252 96.6648 120.699 96.7359 121.381 96.7359V97.2333H115.146V96.7359H115.428C116.063 96.7359 116.51 96.5701 116.722 96.2385C116.934 95.9069 117.052 95.2911 117.052 94.3674V89.654C117.052 88.1144 117.028 87.1907 116.957 86.8591C116.887 86.5275 116.793 86.2906 116.628 86.1722C116.463 86.0538 116.299 85.9827 116.063 85.9827C115.804 85.9827 115.499 86.0538 115.146 86.1959L114.934 85.6985L118.746 84.1353H119.334V86.8591Z" fill="#FBFBFB"/>
<path d="M131.334 89.3224C131.334 91.2172 131.781 92.6857 132.699 93.7752C133.617 94.8647 134.699 95.3858 135.946 95.3858C136.77 95.3858 137.499 95.149 138.111 94.6989C138.723 94.2489 139.24 93.4673 139.64 92.3541L140.064 92.6383C139.875 93.8936 139.311 95.0542 138.393 96.0964C137.475 97.1385 136.299 97.6596 134.911 97.6596C133.405 97.6596 132.087 97.0675 131.028 95.8832C129.969 94.6989 129.405 93.0883 129.405 91.0988C129.405 88.9197 129.969 87.238 131.075 86.0064C132.181 84.7748 133.569 84.1826 135.24 84.1826C136.652 84.1826 137.828 84.6563 138.723 85.6037C139.617 86.5512 140.087 87.8065 140.087 89.3697L131.334 89.3224ZM131.334 88.5407H137.17C137.122 87.7354 137.028 87.1433 136.887 86.8117C136.652 86.2906 136.322 85.888 135.852 85.5801C135.381 85.2721 134.911 85.13 134.417 85.13C133.664 85.13 132.981 85.4379 132.369 86.0301C131.758 86.6222 131.428 87.4749 131.334 88.5407Z" fill="#FBFBFB"/>
<path d="M147.264 97.2572V96.7361H147.97C148.77 96.7361 149.311 96.4755 149.64 95.9781C149.852 95.6702 149.946 94.9834 149.946 93.9175V81.7669C149.946 80.5826 149.805 79.8484 149.57 79.5641C149.217 79.1615 148.676 78.9483 147.97 78.9483H147.264V78.4272H154.864C157.664 78.4272 159.782 78.7352 161.241 79.3747C162.699 80.0142 163.876 81.08 164.747 82.5722C165.617 84.0644 166.064 85.7697 166.064 87.7356C166.064 90.341 165.264 92.5438 163.688 94.2965C161.923 96.2624 159.217 97.2335 155.593 97.2335L147.264 97.2572ZM152.605 95.9071C153.782 96.1676 154.746 96.2861 155.546 96.2861C157.688 96.2861 159.452 95.5281 160.864 94.0123C162.276 92.4964 162.982 90.4594 162.982 87.8777C162.982 85.2723 162.276 83.2354 160.864 81.7195C159.452 80.2037 157.664 79.4694 155.452 79.4694C154.629 79.4694 153.688 79.6115 152.629 79.8721V95.9071H152.605Z" fill="#FBFBFB"/>
<path d="M169.876 85.2011V84.5379C170.817 83.9695 171.476 83.4484 171.806 82.951C172.041 82.5957 172.158 82.1694 172.158 81.6957C172.158 81.4114 172.111 81.1983 172.017 81.0562C171.9 80.914 171.782 80.843 171.664 80.843C171.57 80.843 171.429 80.8667 171.264 80.9377C171.029 81.0088 170.817 81.0562 170.676 81.0562C170.3 81.0562 169.994 80.914 169.688 80.6298C169.382 80.3456 169.264 80.014 169.264 79.5877C169.264 79.1376 169.405 78.7587 169.688 78.4981C170.064 78.1428 170.535 77.9771 171.076 77.9771C171.688 77.9771 172.253 78.2376 172.747 78.7587C173.241 79.2797 173.476 79.9193 173.476 80.7009C173.476 81.7904 173.076 82.7852 172.253 83.6852C171.711 84.3247 170.911 84.7985 169.876 85.2011Z" fill="#FBFBFB"/>
<path d="M188.371 90.9567H181.123L179.853 93.9173C179.547 94.6516 179.382 95.1964 179.382 95.5516C179.382 95.8359 179.523 96.0964 179.782 96.3096C180.041 96.5227 180.629 96.6649 181.547 96.7359V97.257H175.664V96.7359C176.441 96.5938 176.959 96.428 177.17 96.1911C177.641 95.7411 178.159 94.8411 178.723 93.491L185.288 78.0007H185.782L192.3 93.6568C192.818 94.9121 193.288 95.7411 193.735 96.0964C194.182 96.4517 194.771 96.6885 195.524 96.7359V97.257H188.135V96.7359C188.888 96.6885 189.382 96.5701 189.641 96.3569C189.9 96.1438 190.041 95.8832 190.041 95.5753C190.041 95.1727 189.853 94.5332 189.5 93.6568L188.371 90.9567ZM187.97 89.9382L184.794 82.3352L181.547 89.9382H187.97Z" fill="#FBFBFB"/>
<path d="M199.853 84.1826V87.0486C200.912 85.13 201.994 84.1826 203.1 84.1826C203.594 84.1826 204.018 84.3247 204.347 84.6563C204.677 84.9879 204.841 85.3195 204.841 85.7222C204.841 86.0775 204.724 86.3854 204.488 86.6459C204.253 86.9064 203.971 87.0249 203.641 87.0249C203.312 87.0249 202.959 86.8591 202.559 86.5512C202.159 86.2432 201.877 86.0774 201.665 86.0774C201.5 86.0774 201.312 86.1722 201.124 86.3617C200.7 86.7406 200.277 87.3565 199.853 88.2328V94.32C199.853 95.0305 199.947 95.5516 200.112 95.9069C200.23 96.1438 200.441 96.3569 200.747 96.5227C201.053 96.6885 201.477 96.7596 202.065 96.7596V97.257H195.594V96.7596C196.229 96.7596 196.724 96.6648 197.029 96.4517C197.265 96.3096 197.429 96.0727 197.524 95.7411C197.571 95.5753 197.594 95.1253 197.594 94.391V89.4645C197.594 87.996 197.571 87.0959 197.5 86.8117C197.429 86.5275 197.335 86.3143 197.171 86.1959C197.006 86.0774 196.818 86.0064 196.582 86.0064C196.3 86.0064 195.971 86.0775 195.618 86.2196L195.477 85.7222L199.288 84.1589H199.853V84.1826Z" fill="#FBFBFB"/>
<path d="M215.712 92.4251C215.383 94.1068 214.7 95.3858 213.712 96.2859C212.724 97.1859 211.618 97.6359 210.418 97.6359C208.983 97.6359 207.736 97.0201 206.677 95.8122C205.618 94.6042 205.077 92.9699 205.077 90.9093C205.077 88.9197 205.665 87.2854 206.841 86.0301C208.018 84.7747 209.453 84.1589 211.1 84.1589C212.347 84.1589 213.359 84.4905 214.159 85.1537C214.959 85.8169 215.359 86.5038 215.359 87.2143C215.359 87.5696 215.242 87.8539 215.03 88.067C214.818 88.2802 214.489 88.3986 214.089 88.3986C213.547 88.3986 213.147 88.2328 212.865 87.8775C212.7 87.6881 212.606 87.3091 212.559 86.7643C212.512 86.2196 212.324 85.7932 211.994 85.509C211.665 85.2248 211.218 85.0827 210.653 85.0827C209.736 85.0827 208.983 85.4379 208.441 86.1011C207.689 87.0012 207.336 88.2091 207.336 89.7013C207.336 91.2172 207.712 92.5673 208.441 93.7278C209.171 94.8884 210.183 95.4806 211.453 95.4806C212.347 95.4806 213.171 95.1727 213.877 94.5568C214.371 94.1305 214.865 93.3489 215.359 92.2357L215.712 92.4251Z" fill="#FBFBFB"/>
<path d="M66.0153 113.552H67.8976V114.263H65.2388V108.034H66.0153C66.0153 108.01 66.0153 113.552 66.0153 113.552Z" fill="#FBFBFB"/>
<path d="M69.6624 108.01H73.0036V108.721H70.4389V110.473H72.933V111.184H70.4389V113.529H73.0036V114.239H69.6624V108.01Z" fill="#FBFBFB"/>
<path d="M79.8508 110.142L79.0979 114.263H78.2979L79.5685 107.75L81.6861 112.676L83.8038 107.75L85.0744 114.263H84.2744L83.545 110.142H83.5215L81.6626 114.405L79.8508 110.142Z" fill="#FBFBFB"/>
<path d="M87.9216 112.7L87.2157 114.263H86.3921L89.3569 107.75L92.3216 114.263H91.4981L90.7922 112.7H87.9216ZM89.3333 109.455L88.2274 111.966H90.4393L89.3333 109.455Z" fill="#FBFBFB"/>
<path d="M97.9217 114.263H96.9805L95.1452 111.634H94.8158V114.263H94.0393V108.034H94.9805C95.5217 108.034 96.1335 108.034 96.6041 108.318C97.1217 108.626 97.4276 109.218 97.4276 109.81C97.4276 110.71 96.8394 111.444 95.9452 111.563L97.9217 114.263ZM94.8393 110.971H95.0982C95.8746 110.971 96.7452 110.829 96.7452 109.834C96.7452 108.863 95.8276 108.721 95.0511 108.721H94.8393V110.971Z" fill="#FBFBFB"/>
<path d="M100.651 112.7L99.9453 114.263H99.1218L102.087 107.75L105.051 114.263H104.228L103.522 112.7H100.651ZM102.063 109.455L100.957 111.966H103.169L102.063 109.455Z" fill="#FBFBFB"/>
<path d="M107.545 114.263H106.769V108.034H107.545V114.263Z" fill="#FBFBFB"/>
<path d="M112.698 109.194C112.463 108.815 112.181 108.602 111.71 108.602C111.216 108.602 110.675 108.934 110.675 109.479C110.675 109.976 111.145 110.213 111.546 110.379L111.993 110.544C112.887 110.9 113.522 111.373 113.522 112.416C113.522 113.552 112.651 114.358 111.546 114.358C110.534 114.358 109.757 113.623 109.64 112.605L110.416 112.439C110.416 113.126 110.957 113.623 111.616 113.623C112.275 113.623 112.769 113.055 112.769 112.416C112.769 111.752 112.228 111.468 111.71 111.231L111.287 111.042C110.581 110.734 109.945 110.331 109.945 109.455C109.945 108.436 110.84 107.844 111.781 107.844C112.463 107.844 113.028 108.176 113.381 108.792L112.698 109.194Z" fill="#FBFBFB"/>
<path d="M121.357 111.302V111.918H118.204V111.302H121.357Z" fill="#FBFBFB"/>
<path d="M128.087 114.263H127.311V108.034H128.205C130.111 108.034 130.699 108.697 130.699 109.834C130.699 111.16 129.711 111.658 128.534 111.658H128.087V114.263ZM128.087 110.947H128.322C129.122 110.947 129.969 110.805 129.969 109.81C129.969 108.839 129.052 108.721 128.275 108.721H128.063L128.087 110.947Z" fill="#FBFBFB"/>
<path d="M132.84 112.7L132.134 114.263H131.287L134.252 107.75L137.217 114.263H136.393L135.687 112.7H132.84ZM134.252 109.455L133.146 111.966H135.358L134.252 109.455Z" fill="#FBFBFB"/>
<path d="M142.84 114.263H141.899L140.087 111.634H139.758V114.263H138.981V108.034H139.923C140.464 108.034 141.075 108.034 141.546 108.318C142.064 108.626 142.37 109.218 142.37 109.81C142.37 110.71 141.781 111.444 140.887 111.563L142.84 114.263ZM139.758 110.971H139.993C140.793 110.971 141.64 110.829 141.64 109.834C141.64 108.863 140.723 108.721 139.946 108.721H139.758V110.971Z" fill="#FBFBFB"/>
<path d="M145.429 114.263H144.652V108.034H145.429V114.263Z" fill="#FBFBFB"/>
<path d="M150.582 109.194C150.346 108.815 150.064 108.602 149.593 108.602C149.099 108.602 148.558 108.934 148.558 109.479C148.558 109.976 149.029 110.213 149.429 110.379L149.876 110.544C150.746 110.9 151.405 111.373 151.405 112.416C151.405 113.552 150.535 114.358 149.429 114.358C148.417 114.358 147.64 113.623 147.523 112.605L148.299 112.439C148.299 113.126 148.84 113.623 149.499 113.623C150.158 113.623 150.652 113.055 150.652 112.416C150.652 111.752 150.111 111.468 149.593 111.231L149.17 111.042C148.464 110.734 147.829 110.331 147.829 109.455C147.829 108.436 148.723 107.844 149.664 107.844C150.346 107.844 150.935 108.176 151.264 108.792L150.582 109.194Z" fill="#FBFBFB"/>
<path d="M88.0392 16.5371H95.2864V12.0368C95.2864 11.2315 95.2394 10.7104 95.1452 10.4499C95.0511 10.2604 94.8864 10.0946 94.6276 9.95251C94.2982 9.78671 93.9452 9.69197 93.5923 9.69197H93.0511V9.26563H99.71V9.69197H99.1688C98.7924 9.69197 98.4629 9.78671 98.1335 9.95251C97.8982 10.0709 97.71 10.2604 97.6394 10.521C97.5453 10.7578 97.4982 11.2789 97.4982 12.0605V22.1742C97.4982 22.9558 97.5453 23.5006 97.6394 23.7374C97.71 23.9269 97.8747 24.0927 98.11 24.2348C98.4394 24.4243 98.7924 24.519 99.1688 24.519H99.71V24.9454H93.0511V24.519H93.5923C94.2276 24.519 94.6982 24.3296 94.9805 23.9506C95.1688 23.7137 95.2629 23.1216 95.2629 22.1742V17.3897H88.0157V22.1742C88.0157 22.9558 88.0627 23.5006 88.1569 23.7374C88.2275 23.9269 88.3922 24.0927 88.651 24.2348C88.9804 24.4243 89.3334 24.519 89.6863 24.519H90.251V24.9454H83.5685V24.519H84.1097C84.745 24.519 85.2156 24.3296 85.5215 23.9506C85.7098 23.7137 85.8039 23.1216 85.8039 22.1742V12.0368C85.8039 11.2315 85.7568 10.7104 85.6627 10.4499C85.5921 10.2604 85.4274 10.0946 85.1921 9.95251C84.8627 9.76302 84.5097 9.66828 84.1333 9.66828H83.5921V9.24194H90.2746V9.66828H89.7098C89.3334 9.66828 89.0039 9.76302 88.6745 9.92882C88.4392 10.0472 88.2745 10.2367 88.1804 10.4973C88.0863 10.7341 88.0392 11.2552 88.0392 12.0368V16.5371Z" fill="#E4003C"/>
<path d="M122.605 9.50251V9.07617H129.287V9.50251H128.699C128.063 9.50251 127.593 9.69199 127.311 10.071C127.122 10.3078 127.028 10.8999 127.028 11.8474V19.5214C127.028 20.7057 126.887 21.6531 126.652 22.3874C126.416 23.1216 125.946 23.7611 125.334 24.3059C124.699 24.8507 123.946 25.1112 123.052 25.1112C122.322 25.1112 121.757 24.9217 121.357 24.5664C120.934 24.2112 120.746 23.7848 120.746 23.3348C120.746 22.9558 120.84 22.6716 121.028 22.4821C121.287 22.2453 121.569 22.1268 121.922 22.1268C122.157 22.1268 122.393 22.1979 122.581 22.3637C122.769 22.5295 123.028 22.9558 123.334 23.6664C123.499 24.0927 123.734 24.2822 124.016 24.2822C124.228 24.2822 124.416 24.1638 124.605 23.9032C124.793 23.6427 124.863 23.1927 124.863 22.5532V11.8474C124.863 11.0421 124.816 10.521 124.722 10.2841C124.652 10.0946 124.487 9.92885 124.228 9.78673C123.899 9.59725 123.546 9.50251 123.193 9.50251C123.146 9.50251 122.605 9.50251 122.605 9.50251Z" fill="white"/>
<path d="M83.8038 58.5076V58.0813H84.3921C85.0509 58.0813 85.5215 57.8681 85.8039 57.4418C85.9686 57.1812 86.0627 56.6128 86.0627 55.7364V45.5991C86.0627 44.628 85.945 44.0122 85.7333 43.7516C85.4274 43.42 85.0039 43.2305 84.3921 43.2305H83.8038V42.8042H90.1334C92.4628 42.8042 94.2275 43.0647 95.4511 43.6095C96.6747 44.1543 97.6394 45.0306 98.3923 46.2623C99.1218 47.4939 99.4982 48.9387 99.4982 50.573C99.4982 52.7521 98.8394 54.5759 97.5217 56.0443C96.0393 57.6786 93.7805 58.4839 90.7687 58.4839L83.8038 58.5076ZM88.251 57.3707C89.2157 57.5839 90.0392 57.7023 90.6981 57.7023C92.4863 57.7023 93.9452 57.0628 95.1217 55.8075C96.2982 54.5522 96.8864 52.8468 96.8864 50.6914C96.8864 48.5124 96.2982 46.807 95.1217 45.5754C93.9452 44.3438 92.4393 43.7042 90.604 43.7042C89.9216 43.7042 89.1216 43.8227 88.251 44.0358V57.3707Z" fill="white"/>
<path d="M127.311 53.439H121.287L120.228 55.9023C119.969 56.5181 119.828 56.9681 119.828 57.276C119.828 57.5129 119.946 57.726 120.157 57.9155C120.393 58.105 120.863 58.2234 121.616 58.2708V58.6971H116.722V58.2708C117.381 58.1524 117.804 58.0103 117.993 57.8208C118.393 57.4418 118.816 56.7076 119.287 55.5707L124.769 42.6621H125.169L130.605 55.7128C131.052 56.7549 131.428 57.4418 131.781 57.7497C132.134 58.0576 132.628 58.2471 133.264 58.2708V58.6971H127.122V58.2708C127.734 58.2471 128.158 58.1287 128.369 57.9629C128.581 57.7734 128.699 57.5602 128.699 57.3234C128.699 56.9918 128.534 56.447 128.252 55.7128L127.311 53.439ZM126.981 52.5863L124.346 46.2386L121.64 52.5863H126.981Z" fill="white"/>
</g>
<defs>
<clipPath id="clip0_2939_198">
<rect width="214.78" height="126.883" fill="white" transform="translate(0.931702 0.3125)"/>
</clipPath>
</defs>
</svg>
