<svg width="164" height="97" viewBox="0 0 164 97" fill="none" xmlns="http://www.w3.org/2000/svg">
<g clip-path="url(#clip0_2939_6914)">
<path d="M107.64 0.0625H56.9092V50.987H107.64V0.0625Z" fill="#E4003C"/>
<path d="M82.2658 0.0625H56.9092V25.5157H82.2658V0.0625Z" fill="white"/>
<path d="M72.4062 89.2837L73.283 91.9601H76.0924L73.8198 93.6127L74.6788 96.2892L72.4062 94.6366L70.1515 96.2892L71.0104 93.6127L68.7378 91.9601H71.5472L72.4062 89.2837Z" fill="#302F38"/>
<path d="M82.266 89.2837L83.125 91.9601H85.9344L83.6797 93.6127L84.5386 96.2892L82.266 94.6366L79.9934 96.2892L80.8703 93.6127L78.5977 91.9601H81.4071L82.266 89.2837Z" fill="#302F38"/>
<path d="M92.1259 89.2837L92.9848 91.9601H95.7943L93.5217 93.6127L94.3985 96.2892L92.1259 94.6366L89.8533 96.2892L90.7122 93.6127L88.4575 91.9601H91.267L92.1259 89.2837Z" fill="#302F38"/>
<path d="M4.63938 65.932H11.2425V61.8544C11.2425 61.118 11.2067 60.6509 11.0993 60.4174C11.0277 60.2378 10.8846 60.0941 10.652 59.9683C10.3656 59.7887 10.0435 59.6989 9.72144 59.6989H9.22039V59.3037H15.3045V59.6989H14.7856C14.4456 59.6989 14.1235 59.7707 13.8372 59.9324C13.6224 60.0402 13.4614 60.2198 13.3719 60.4354C13.2825 60.6509 13.2467 61.1359 13.2467 61.8365V71.0514C13.2467 71.7699 13.3003 72.2549 13.3898 72.4884C13.4614 72.668 13.6046 72.8117 13.8193 72.9375C14.1235 73.0991 14.4456 73.1889 14.7856 73.1889H15.2866V73.5841H9.20249V73.1889H9.72144C10.2941 73.1889 10.7235 73.0093 10.9919 72.668C11.1709 72.4525 11.2604 71.8956 11.2604 71.0514V66.7044H4.63938V71.0514C4.63938 71.7699 4.67517 72.2549 4.78254 72.4884C4.85412 72.668 4.99727 72.8117 5.2299 72.9375C5.53411 73.0991 5.85621 73.1889 6.17831 73.1889H6.67936V73.5841H0.595215V73.1889H1.09626C1.68678 73.1889 2.11625 73.0093 2.38467 72.668C2.54572 72.4525 2.63519 71.8956 2.63519 71.0514V61.8544C2.63519 61.118 2.5994 60.6509 2.49204 60.4174C2.42046 60.2378 2.2773 60.0941 2.06257 59.9683C1.75836 59.8067 1.43626 59.7169 1.09626 59.7169H0.595215V59.3217H6.67936V59.7169H6.17831C5.83832 59.7169 5.53411 59.7887 5.2299 59.9504C5.01517 60.0581 4.87201 60.2378 4.78254 60.4533C4.69307 60.6689 4.65728 61.1539 4.65728 61.8544L4.63938 65.932Z" fill="#302F38"/>
<path d="M20.6728 63.6685C22.1222 63.6685 23.3033 64.2253 24.1801 65.339C24.9317 66.291 25.3075 67.3688 25.3075 68.6082C25.3075 69.4704 25.0927 70.3506 24.6812 71.2308C24.2696 72.111 23.697 72.7756 22.9812 73.2247C22.2654 73.6737 21.4601 73.9072 20.5654 73.9072C19.1159 73.9072 17.9707 73.3324 17.1118 72.1649C16.396 71.1949 16.0381 70.0991 16.0381 68.8777C16.0381 67.9975 16.2528 67.1173 16.7002 66.2371C17.1475 65.357 17.7023 64.7103 18.4181 64.2972C19.1338 63.884 19.8675 63.6685 20.6728 63.6685ZM19.8317 59.0161H21.7643L23.7506 62.5009H23.4285L20.5654 60.2555L18.1675 62.5009H17.8454L19.8317 59.0161ZM20.3507 64.3511C19.9749 64.3511 19.5991 64.4588 19.2412 64.6923C18.8833 64.9259 18.5612 65.3031 18.3286 65.8599C18.096 66.4168 17.9886 67.1353 17.9886 67.9975C17.9886 69.3986 18.257 70.6201 18.8296 71.626C19.4023 72.6319 20.118 73.1528 21.0307 73.1528C21.7107 73.1528 22.2654 72.8654 22.7128 72.3086C23.1601 71.7517 23.3749 70.7817 23.3749 69.4166C23.3749 67.7101 22.9991 66.3629 22.2654 65.3749C21.7464 64.6744 21.1201 64.3511 20.3507 64.3511Z" fill="#302F38"/>
<path d="M29.0656 60.7767V63.9382H31.3024V64.6747H29.0656V70.9257C29.0656 71.5544 29.155 71.9676 29.334 72.1831C29.5129 72.3987 29.7456 72.5064 30.014 72.5064C30.2466 72.5064 30.4613 72.4346 30.694 72.2909C30.9266 72.1472 31.0877 71.9316 31.195 71.6622H31.6066C31.3561 72.3448 31.0161 72.8657 30.5687 73.207C30.1214 73.5483 29.6561 73.7279 29.1908 73.7279C28.8687 73.7279 28.5645 73.6381 28.2424 73.4585C27.9203 73.2788 27.7056 73.0274 27.5624 72.6861C27.4193 72.3448 27.3477 71.8418 27.3477 71.1413V64.6567H25.8267V64.3154C26.2203 64.1538 26.614 63.9023 27.0077 63.5251C27.4014 63.1478 27.7593 62.7167 28.0814 62.2138C28.2424 61.9443 28.4751 61.4593 28.7614 60.7588L29.0656 60.7767Z" fill="#302F38"/>
<path d="M33.4315 67.5663C33.4315 69.0033 33.7715 70.117 34.4694 70.9433C35.1673 71.7696 35.9905 72.1647 36.9389 72.1647C37.5652 72.1647 38.1199 71.9851 38.5852 71.6438C39.0504 71.3025 39.4441 70.7098 39.7483 69.8655L40.0704 70.0811C39.9273 71.0331 39.4978 71.9133 38.782 72.7036C38.0662 73.494 37.1894 73.8892 36.1336 73.8892C34.9705 73.8892 33.9863 73.4401 33.181 72.542C32.3758 71.6438 31.9463 70.4224 31.9463 68.9135C31.9463 67.2609 32.3758 65.9855 33.2168 65.0515C34.0578 64.1174 35.1136 63.6504 36.3841 63.6504C37.4578 63.6504 38.3525 64.0096 39.0325 64.7282C39.7125 65.4467 40.0704 66.3987 40.0704 67.5842L33.4315 67.5663ZM33.4315 66.9735H37.8694C37.8336 66.3628 37.762 65.9137 37.6546 65.6622C37.4757 65.267 37.2252 64.9617 36.8673 64.7282C36.5094 64.4946 36.1515 64.3869 35.7757 64.3869C35.2031 64.3869 34.6842 64.6204 34.2189 65.0694C33.7536 65.5185 33.5031 66.1652 33.4315 66.9735Z" fill="#302F38"/>
<path d="M44.2219 58.621V71.4105C44.2219 72.0212 44.2577 72.4164 44.3472 72.614C44.4367 72.8116 44.5619 72.9553 44.7588 73.0631C44.9556 73.1708 45.2777 73.2068 45.7788 73.2068V73.584H41.0725V73.2068C41.5199 73.2068 41.8062 73.1529 41.9672 73.0631C42.1283 72.9732 42.2535 72.8295 42.343 72.614C42.4325 72.3984 42.4862 72.0033 42.4862 71.4105V62.6626C42.4862 61.5848 42.4683 60.9023 42.4146 60.6508C42.3609 60.3993 42.2893 60.2376 42.182 60.1478C42.0746 60.058 41.9314 60.0041 41.7704 60.0041C41.5914 60.0041 41.3588 60.058 41.0725 60.1658L40.8936 59.7886L43.7567 58.603L44.2219 58.621Z" fill="#302F38"/>
<path d="M52.8652 59.6989V59.3037H58.9493V59.6989H58.4304C57.8577 59.6989 57.4283 59.8785 57.1599 60.2198C56.9988 60.4354 56.9093 60.9922 56.9093 61.8365V68.806C56.9093 69.8838 56.802 70.746 56.5514 71.4106C56.3009 72.0752 55.9072 72.65 55.3346 73.153C54.762 73.656 54.0641 73.8895 53.2588 73.8895C52.5967 73.8895 52.0778 73.7278 51.702 73.4045C51.3262 73.0812 51.1294 72.7039 51.1294 72.2908C51.1294 71.9495 51.2189 71.6801 51.3978 71.5184C51.6304 71.3028 51.8989 71.1951 52.2031 71.1951C52.4178 71.1951 52.6325 71.2669 52.8115 71.4106C52.9904 71.5543 53.2231 71.9495 53.4915 72.5962C53.6525 72.9734 53.8673 73.171 54.1178 73.171C54.2967 73.171 54.4757 73.0632 54.6546 72.8297C54.8336 72.5962 54.9051 72.183 54.9051 71.5902V61.8365C54.9051 61.118 54.8515 60.633 54.762 60.3994C54.6904 60.2198 54.5473 60.0761 54.3146 59.9504C54.0104 59.7887 53.6883 59.6989 53.3662 59.6989H52.8652Z" fill="#302F38"/>
<path d="M60.9354 67.5664C60.9354 69.0034 61.2754 70.1171 61.9733 70.9434C62.6712 71.7517 63.4944 72.1648 64.4428 72.1648C65.0691 72.1648 65.6238 71.9852 66.0891 71.6439C66.5543 71.3026 66.948 70.7099 67.2522 69.8656L67.5743 70.0812C67.4312 71.0332 67.0017 71.9134 66.2859 72.7037C65.588 73.4941 64.6933 73.8893 63.6375 73.8893C62.4744 73.8893 61.4902 73.4402 60.6849 72.5421C59.8797 71.6439 59.4502 70.4225 59.4502 68.9136C59.4502 67.261 59.8797 65.9857 60.7207 65.0516C61.5618 64.1175 62.6175 63.6685 63.888 63.6685C64.9617 63.6685 65.8564 64.0277 66.5364 64.7462C67.2343 65.4647 67.5743 66.4168 67.5743 67.6023L60.9354 67.5664ZM60.9354 66.9736H65.3733C65.3375 66.3629 65.2659 65.9138 65.1586 65.6623C64.9796 65.2671 64.7291 64.9618 64.3712 64.7283C64.0133 64.4947 63.6554 64.387 63.2796 64.387C62.707 64.387 62.1881 64.6205 61.7228 65.0696C61.2754 65.5186 61.007 66.1653 60.9354 66.9736Z" fill="#302F38"/>
<path d="M73.8734 72.201C72.8892 72.9734 72.2629 73.4045 72.0124 73.5302C71.6366 73.7099 71.225 73.7997 70.8135 73.7997C70.1514 73.7997 69.5966 73.5662 69.1672 73.1171C68.7377 72.668 68.5229 72.0573 68.5229 71.3208C68.5229 70.8538 68.6303 70.4406 68.8451 70.0993C69.1314 69.6143 69.6324 69.1653 70.3482 68.7521C71.064 68.339 72.245 67.8181 73.8913 67.2253V66.8481C73.8913 65.896 73.7482 65.2314 73.444 64.8722C73.1397 64.5129 72.6924 64.3333 72.1198 64.3333C71.6724 64.3333 71.3324 64.459 71.064 64.6925C70.7956 64.9261 70.6703 65.1955 70.6703 65.5188L70.6882 66.1296C70.6882 66.4529 70.5987 66.7044 70.4377 66.884C70.2766 67.0636 70.0619 67.1534 69.7935 67.1534C69.525 67.1534 69.3282 67.0636 69.1672 66.884C69.0061 66.7044 68.9166 66.4529 68.9166 66.1296C68.9166 65.5188 69.2208 64.962 69.8471 64.459C70.4556 63.9561 71.3324 63.7046 72.4419 63.7046C73.3008 63.7046 73.9987 63.8483 74.5355 64.1357C74.9471 64.3512 75.2513 64.6925 75.4481 65.1596C75.5734 65.4649 75.645 66.0757 75.645 67.0097V70.279C75.645 71.1951 75.6629 71.7699 75.6987 71.9675C75.7345 72.1651 75.7881 72.3088 75.8776 72.3806C75.9671 72.4525 76.0566 72.4884 76.146 72.4884C76.2534 72.4884 76.3608 72.4704 76.4323 72.4165C76.5755 72.3267 76.8618 72.0752 77.2734 71.6441V72.2369C76.486 73.2967 75.7345 73.8176 75.0366 73.8176C74.6966 73.8176 74.4282 73.6919 74.2134 73.4584C73.9987 73.2249 73.8734 72.7758 73.8734 72.201ZM73.8734 71.5184V67.836C72.8176 68.2492 72.1377 68.5545 71.8334 68.7342C71.2787 69.0395 70.885 69.3629 70.6524 69.7042C70.4198 70.0455 70.2945 70.4047 70.2945 70.8178C70.2945 71.3208 70.4377 71.734 70.7419 72.0752C71.0461 72.4165 71.3861 72.5782 71.7798 72.5782C72.2987 72.5602 72.9966 72.2189 73.8734 71.5184Z" fill="#302F38"/>
<path d="M80.3331 65.6985C81.4605 64.3334 82.5341 63.6508 83.5541 63.6508C84.0731 63.6508 84.5204 63.7765 84.9141 64.046C85.3078 64.3154 85.5941 64.7465 85.8088 65.3393C85.9699 65.7524 86.0415 66.3991 86.0415 67.2793V71.3927C86.0415 72.0035 86.0951 72.4166 86.1846 72.6322C86.2562 72.8118 86.3815 72.9375 86.5604 73.0453C86.7393 73.1531 87.0436 73.189 87.5088 73.189V73.5662H82.7668V73.189H82.9636C83.411 73.189 83.7331 73.1172 83.8941 72.9914C84.0552 72.8657 84.1983 72.6501 84.2699 72.3807C84.3057 72.2729 84.3057 71.9496 84.3057 71.3927V67.4409C84.3057 66.5607 84.1983 65.932 83.9657 65.5369C83.7331 65.1417 83.3573 64.9441 82.8204 64.9441C81.9973 64.9441 81.1563 65.3932 80.3331 66.3093V71.3927C80.3331 72.0394 80.3689 72.4525 80.4405 72.5962C80.5478 72.7938 80.6731 72.9555 80.852 73.0453C81.031 73.1351 81.371 73.189 81.8899 73.189V73.5662H77.1479V73.189H77.3626C77.8458 73.189 78.1858 73.0633 78.3468 72.8118C78.5079 72.5603 78.5973 72.0933 78.5973 71.3927V67.8181C78.5973 66.6506 78.5794 65.95 78.5257 65.6985C78.4721 65.4471 78.4005 65.2674 78.2752 65.1776C78.15 65.0878 78.0247 65.0339 77.8458 65.0339C77.6489 65.0339 77.4163 65.0878 77.1479 65.1956L76.9868 64.8184L79.8857 63.6328H80.3331V65.6985V65.6985Z" fill="#302F38"/>
<path d="M90.6407 65.6985C91.7681 64.3334 92.8417 63.6508 93.8617 63.6508C94.3807 63.6508 94.828 63.7765 95.2217 64.046C95.6154 64.3154 95.9017 64.7465 96.1165 65.3393C96.2775 65.7524 96.3491 66.3991 96.3491 67.2793V71.3927C96.3491 72.0035 96.4028 72.4166 96.4922 72.6322C96.5638 72.8118 96.6891 72.9375 96.868 73.0453C97.047 73.1531 97.3512 73.189 97.8164 73.189V73.5662H93.0744V73.189H93.2712C93.7186 73.189 94.0407 73.1172 94.2017 72.9914C94.3628 72.8657 94.5059 72.6501 94.5775 72.3807C94.6133 72.2729 94.6133 71.9496 94.6133 71.3927V67.4409C94.6133 66.5607 94.5059 65.932 94.2733 65.5369C94.0407 65.1417 93.6649 64.9441 93.1281 64.9441C92.3049 64.9441 91.4639 65.3932 90.6407 66.3093V71.3927C90.6407 72.0394 90.6765 72.4525 90.7481 72.5962C90.8555 72.7938 90.9807 72.9555 91.1597 73.0453C91.3386 73.1351 91.6786 73.189 92.1975 73.189V73.5662H87.4555V73.189H87.6702C88.1534 73.189 88.4934 73.0633 88.6544 72.8118C88.8155 72.5603 88.9049 72.0933 88.9049 71.3927V67.8181C88.9049 66.6506 88.8871 65.95 88.8334 65.6985C88.7797 65.4471 88.7081 65.2674 88.5828 65.1776C88.4576 65.0878 88.3323 65.0339 88.1534 65.0339C87.9565 65.0339 87.7239 65.0878 87.4555 65.1956L87.2944 64.8184L90.1934 63.6328H90.6407V65.6985Z" fill="#302F38"/>
<path d="M99.7667 67.5664C99.7667 69.0034 100.107 70.1171 100.805 70.9434C101.502 71.7697 102.326 72.1648 103.274 72.1648C103.9 72.1648 104.455 71.9852 104.92 71.6439C105.386 71.3026 105.779 70.7099 106.083 69.8656L106.406 70.0812C106.262 71.0332 105.833 71.9134 105.135 72.7037C104.437 73.4941 103.542 73.8893 102.487 73.8893C101.341 73.8893 100.339 73.4402 99.534 72.5421C98.7288 71.6439 98.2993 70.4225 98.2993 68.9136C98.2993 67.261 98.7288 65.9857 99.5698 65.0516C100.411 64.1175 101.467 63.6685 102.737 63.6685C103.811 63.6685 104.706 64.0277 105.386 64.7462C106.066 65.4647 106.423 66.4168 106.423 67.6023L99.7667 67.5664ZM99.7667 66.9736H104.205C104.169 66.3629 104.097 65.9138 103.99 65.6623C103.811 65.2671 103.56 64.9618 103.202 64.7283C102.845 64.4947 102.487 64.387 102.111 64.387C101.538 64.387 101.019 64.6205 100.554 65.0696C100.089 65.5186 99.8382 66.1653 99.7667 66.9736Z" fill="#302F38"/>
<path d="M111.881 73.5841V73.1889H112.418C113.027 73.1889 113.438 72.9913 113.689 72.6141C113.85 72.3806 113.921 71.8597 113.921 71.0514V61.8365C113.921 60.9383 113.814 60.3815 113.635 60.1659C113.367 59.8606 112.955 59.6989 112.418 59.6989H111.881V59.3037H117.661C119.791 59.3037 121.401 59.5372 122.511 60.0222C123.62 60.5072 124.515 61.3155 125.177 62.4472C125.839 63.5789 126.179 64.8722 126.179 66.3631C126.179 68.339 125.571 70.0095 124.372 71.3388C123.03 72.8297 120.972 73.5661 118.216 73.5661L111.881 73.5841ZM115.943 72.5602C116.838 72.7578 117.572 72.8476 118.18 72.8476C119.809 72.8476 121.151 72.2728 122.224 71.1232C123.298 69.9736 123.835 68.4288 123.835 66.4709C123.835 64.495 123.298 62.9502 122.224 61.8005C121.151 60.6509 119.791 60.0941 118.109 60.0941C117.482 60.0941 116.767 60.2019 115.961 60.3994V72.5602H115.943Z" fill="#302F38"/>
<path d="M129.078 64.441V63.9381C129.794 63.507 130.295 63.1118 130.545 62.7346C130.724 62.4651 130.814 62.1418 130.814 61.7826C130.814 61.567 130.778 61.4053 130.706 61.2976C130.617 61.1898 130.528 61.1359 130.438 61.1359C130.366 61.1359 130.259 61.1539 130.134 61.2077C129.955 61.2616 129.794 61.2976 129.686 61.2976C129.4 61.2976 129.168 61.1898 128.935 60.9742C128.702 60.7587 128.613 60.5072 128.613 60.1839C128.613 59.8426 128.72 59.5552 128.935 59.3576C129.221 59.0881 129.579 58.9624 129.991 58.9624C130.456 58.9624 130.885 59.16 131.261 59.5552C131.637 59.9504 131.816 60.4353 131.816 61.0281C131.816 61.8544 131.512 62.6088 130.885 63.2914C130.474 63.7764 129.865 64.1357 129.078 64.441Z" fill="#302F38"/>
<path d="M143.143 68.8061H137.632L136.665 71.0515C136.433 71.6083 136.307 72.0214 136.307 72.2909C136.307 72.5064 136.415 72.704 136.612 72.8657C136.808 73.0274 137.256 73.1351 137.954 73.189V73.5842H133.48V73.189C134.071 73.0812 134.464 72.9555 134.625 72.7759C134.983 72.4346 135.377 71.752 135.806 70.7281L140.799 58.9805H141.175L146.131 70.8539C146.525 71.8059 146.883 72.4346 147.223 72.704C147.563 72.9735 148.01 73.1531 148.583 73.189V73.5842H142.964V73.189C143.537 73.1531 143.912 73.0633 144.109 72.9016C144.306 72.74 144.414 72.5424 144.414 72.3088C144.414 72.0035 144.27 71.5185 144.002 70.8539L143.143 68.8061ZM142.839 68.0337L140.423 62.2677L137.954 68.0337H142.839Z" fill="#302F38"/>
<path d="M151.876 63.6684V65.8418C152.681 64.3869 153.504 63.6684 154.345 63.6684C154.721 63.6684 155.043 63.7761 155.294 64.0276C155.544 64.2791 155.669 64.5306 155.669 64.8359C155.669 65.1054 155.58 65.3389 155.401 65.5365C155.222 65.7341 155.007 65.8239 154.757 65.8239C154.506 65.8239 154.238 65.6981 153.934 65.4646C153.629 65.2311 153.415 65.1054 153.254 65.1054C153.128 65.1054 152.985 65.1772 152.842 65.3209C152.52 65.6083 152.198 66.0754 151.876 66.74V71.3564C151.876 71.8953 151.947 72.2905 152.073 72.5599C152.162 72.7396 152.323 72.9012 152.556 73.027C152.788 73.1527 153.11 73.2066 153.558 73.2066V73.5838H148.637V73.2066C149.12 73.2066 149.496 73.1347 149.728 72.9731C149.907 72.8653 150.033 72.6857 150.104 72.4342C150.14 72.3084 150.158 71.9672 150.158 71.4103V67.674C150.158 66.5604 150.14 65.8778 150.086 65.6622C150.033 65.4467 149.961 65.285 149.836 65.1952C149.711 65.1054 149.567 65.0515 149.388 65.0515C149.174 65.0515 148.923 65.1054 148.655 65.2131L148.547 64.8359L151.446 63.6504H151.876V63.6684Z" fill="#302F38"/>
<path d="M163.936 69.9194C163.686 71.1948 163.167 72.1647 162.415 72.8473C161.664 73.5299 160.823 73.8712 159.91 73.8712C158.819 73.8712 157.87 73.4042 157.065 72.4881C156.26 71.572 155.848 70.3325 155.848 68.7698C155.848 67.2609 156.296 66.0215 157.19 65.0694C158.085 64.1174 159.177 63.6504 160.429 63.6504C161.378 63.6504 162.147 63.9019 162.755 64.4048C163.364 64.9078 163.668 65.4287 163.668 65.9676C163.668 66.237 163.579 66.4526 163.418 66.6142C163.256 66.7759 163.006 66.8657 162.702 66.8657C162.29 66.8657 161.986 66.74 161.771 66.4705C161.646 66.3268 161.574 66.0394 161.539 65.6263C161.503 65.2131 161.36 64.8898 161.109 64.6743C160.859 64.4587 160.519 64.3509 160.089 64.3509C159.391 64.3509 158.819 64.6204 158.407 65.1233C157.834 65.8059 157.566 66.722 157.566 67.8537C157.566 69.0033 157.852 70.0272 158.407 70.9073C158.962 71.7875 159.731 72.2366 160.698 72.2366C161.378 72.2366 162.004 72.0031 162.541 71.536C162.916 71.2127 163.292 70.6199 163.668 69.7757L163.936 69.9194Z" fill="#302F38"/>
<path d="M50.0915 85.9422H51.5231V86.4811H49.501V81.7569H50.0915C50.0915 81.7389 50.0915 85.9422 50.0915 85.9422Z" fill="#302F38"/>
<path d="M52.8652 81.7393H55.4063V82.2781H53.4558V83.6074H55.3526V84.1463H53.4558V85.9246H55.4063V86.4635H52.8652V81.7393Z" fill="#302F38"/>
<path d="M60.6137 83.3557L60.041 86.4813H59.4326L60.3989 81.5415L62.0094 85.2778L63.6199 81.5415L64.5862 86.4813H63.9778L63.4231 83.3557H63.4052L61.9915 86.589L60.6137 83.3557Z" fill="#302F38"/>
<path d="M66.7515 85.2957L66.2147 86.4813H65.5884L67.8431 81.5415L70.0978 86.4813H69.4715L68.9347 85.2957H66.7515ZM67.8252 82.8348L66.9841 84.7389H68.6662L67.8252 82.8348Z" fill="#302F38"/>
<path d="M74.3564 86.481H73.6406L72.2449 84.4872H71.9943V86.481H71.4038V81.7568H72.1196C72.5312 81.7568 72.9964 81.7568 73.3543 81.9724C73.748 82.2059 73.9806 82.655 73.9806 83.104C73.9806 83.7866 73.5333 84.3435 72.8533 84.4333L74.3564 86.481ZM72.0122 83.9842H72.2091C72.7996 83.9842 73.4617 83.8764 73.4617 83.122C73.4617 82.3855 72.7638 82.2778 72.1733 82.2778H72.0122V83.9842Z" fill="#302F38"/>
<path d="M76.4322 85.2957L75.8954 86.4813H75.269L77.5238 81.5415L79.7785 86.4813H79.1522L78.6153 85.2957H76.4322ZM77.5059 82.8348L76.6648 84.7389H78.3469L77.5059 82.8348Z" fill="#302F38"/>
<path d="M81.6755 86.481H81.085V81.7568H81.6755V86.481Z" fill="#302F38"/>
<path d="M85.5944 82.6372C85.4154 82.3498 85.2007 82.1881 84.8428 82.1881C84.467 82.1881 84.0554 82.4396 84.0554 82.8527C84.0554 83.2299 84.4133 83.4096 84.7175 83.5353L85.0575 83.661C85.7375 83.9305 86.2207 84.2897 86.2207 85.0801C86.2207 85.9423 85.5586 86.553 84.7175 86.553C83.9481 86.553 83.3575 85.9962 83.2681 85.2238L83.8586 85.0981C83.8586 85.619 84.2702 85.9962 84.7712 85.9962C85.2723 85.9962 85.648 85.5651 85.648 85.0801C85.648 84.5771 85.2365 84.3616 84.8428 84.182L84.5207 84.0383C83.9839 83.8047 83.5007 83.4994 83.5007 82.8348C83.5007 82.0624 84.1807 81.6133 84.8965 81.6133C85.4154 81.6133 85.8449 81.8648 86.1133 82.3318L85.5944 82.6372Z" fill="#302F38"/>
<path d="M92.1796 84.2358V84.7029H89.7817V84.2358H92.1796Z" fill="#302F38"/>
<path d="M97.2976 86.481H96.707V81.7568H97.387C98.8365 81.7568 99.2839 82.2598 99.2839 83.122C99.2839 84.1279 98.5323 84.5051 97.6375 84.5051H97.2976V86.481ZM97.2976 83.9663H97.4765C98.0849 83.9663 98.7291 83.8585 98.7291 83.104C98.7291 82.3676 98.0312 82.2778 97.4407 82.2778H97.2797L97.2976 83.9663Z" fill="#302F38"/>
<path d="M100.912 85.2957L100.375 86.4813H99.731L101.986 81.5415L104.24 86.4813H103.614L103.077 85.2957H100.912ZM101.986 82.8348L101.145 84.7389H102.827L101.986 82.8348Z" fill="#302F38"/>
<path d="M108.517 86.481H107.801L106.424 84.4872H106.173V86.481H105.583V81.7568H106.298C106.71 81.7568 107.175 81.7568 107.533 81.9724C107.927 82.2059 108.159 82.655 108.159 83.104C108.159 83.7866 107.712 84.3435 107.032 84.4333L108.517 86.481ZM106.173 83.9842H106.352C106.96 83.9842 107.605 83.8764 107.605 83.122C107.605 82.3855 106.907 82.2778 106.316 82.2778H106.173V83.9842Z" fill="#302F38"/>
<path d="M110.486 86.481H109.895V81.7568H110.486V86.481Z" fill="#302F38"/>
<path d="M114.404 82.6372C114.225 82.3498 114.011 82.1881 113.653 82.1881C113.277 82.1881 112.865 82.4396 112.865 82.8527C112.865 83.2299 113.223 83.4096 113.528 83.5353L113.868 83.661C114.53 83.9305 115.031 84.2897 115.031 85.0801C115.031 85.9423 114.369 86.553 113.528 86.553C112.758 86.553 112.168 85.9962 112.078 85.2238L112.669 85.0981C112.669 85.619 113.08 85.9962 113.581 85.9962C114.082 85.9962 114.458 85.5651 114.458 85.0801C114.458 84.5771 114.047 84.3616 113.653 84.182L113.331 84.0383C112.794 83.8047 112.311 83.4994 112.311 82.8348C112.311 82.0624 112.991 81.6133 113.707 81.6133C114.225 81.6133 114.673 81.8648 114.923 82.3318L114.404 82.6372Z" fill="#302F38"/>
<path d="M66.8409 12.367H72.3524V8.95408C72.3524 8.34334 72.3166 7.94816 72.245 7.75057C72.1735 7.60687 72.0482 7.48113 71.8514 7.37336C71.6008 7.24762 71.3324 7.17577 71.064 7.17577H70.6524V6.85244H75.7166V7.17577H75.305C75.0187 7.17577 74.7682 7.24762 74.5176 7.37336C74.3387 7.46317 74.1955 7.60687 74.1419 7.80446C74.0703 7.98409 74.0345 8.37927 74.0345 8.97204V16.6421C74.0345 17.2349 74.0703 17.6481 74.1419 17.8277C74.1955 17.9714 74.3208 18.0971 74.4997 18.2049C74.7503 18.3486 75.0187 18.4205 75.305 18.4205H75.7166V18.7438H70.6524V18.4205H71.064C71.5472 18.4205 71.905 18.2768 72.1198 17.9894C72.2629 17.8097 72.3345 17.3607 72.3345 16.6421V13.0137H66.823V16.6421C66.823 17.2349 66.8588 17.6481 66.9304 17.8277C66.984 17.9714 67.1093 18.0971 67.3061 18.2049C67.5567 18.3486 67.8251 18.4205 68.0935 18.4205H68.523V18.7438H63.4409V18.4205H63.8525C64.3356 18.4205 64.6935 18.2768 64.9262 17.9894C65.0693 17.8097 65.1409 17.3607 65.1409 16.6421V8.95408C65.1409 8.34334 65.1051 7.94816 65.0335 7.75057C64.9798 7.60687 64.8546 7.48113 64.6756 7.37336C64.4251 7.22965 64.1567 7.1578 63.8704 7.1578H63.4588V6.83447H68.5409V7.1578H68.1114C67.8251 7.1578 67.5746 7.22965 67.324 7.35539C67.1451 7.44521 67.0198 7.58891 66.9483 7.7865C66.8767 7.96613 66.8409 8.36131 66.8409 8.95408V12.367Z" fill="#E4003C"/>
<path d="M93.128 7.03183V6.7085H98.2101V7.03183H97.7627C97.2796 7.03183 96.9217 7.17553 96.7069 7.46293C96.5638 7.64256 96.4922 8.09163 96.4922 8.81014V14.6301C96.4922 15.5282 96.3848 16.2467 96.2059 16.8036C96.0269 17.3604 95.6691 17.8454 95.2038 18.2586C94.7206 18.6717 94.148 18.8693 93.468 18.8693C92.9133 18.8693 92.4838 18.7256 92.1796 18.4561C91.8575 18.1867 91.7144 17.8634 91.7144 17.5221C91.7144 17.2347 91.7859 17.0191 91.9291 16.8754C92.1259 16.6958 92.3407 16.606 92.6091 16.606C92.788 16.606 92.967 16.6599 93.1101 16.7856C93.2533 16.9114 93.4501 17.2347 93.6828 17.7736C93.808 18.0969 93.987 18.2406 94.2017 18.2406C94.3628 18.2406 94.5059 18.1508 94.6491 17.9532C94.7922 17.7556 94.8459 17.4143 94.8459 16.9293V8.81014C94.8459 8.19941 94.8101 7.80423 94.7385 7.6246C94.6849 7.4809 94.5596 7.35516 94.3628 7.24738C94.1122 7.10368 93.8438 7.03183 93.5754 7.03183C93.5396 7.03183 93.128 7.03183 93.128 7.03183Z" fill="white"/>
<path d="M63.6196 44.1969V43.8736H64.067C64.568 43.8736 64.9259 43.7119 65.1407 43.3886C65.2659 43.191 65.3375 42.7599 65.3375 42.0953V34.4072C65.3375 33.6707 65.248 33.2037 65.087 33.0061C64.8544 32.7546 64.5323 32.6109 64.067 32.6109H63.6196V32.2876H68.4333C70.2048 32.2876 71.5469 32.4852 72.4774 32.8983C73.4079 33.3115 74.1416 33.9761 74.7142 34.9102C75.269 35.8442 75.5553 36.94 75.5553 38.1794C75.5553 39.832 75.0542 41.2151 74.0521 42.3288C72.9248 43.5682 71.2069 44.179 68.9164 44.179L63.6196 44.1969ZM67.0017 43.3347C67.7354 43.4964 68.3617 43.5862 68.8627 43.5862C70.2227 43.5862 71.3322 43.1012 72.2269 42.1492C73.1216 41.1971 73.569 39.9038 73.569 38.2692C73.569 36.6166 73.1216 35.3233 72.2269 34.3892C71.3322 33.4552 70.1869 32.9702 68.7912 32.9702C68.2722 32.9702 67.6638 33.06 67.0017 33.2217V43.3347Z" fill="white"/>
<path d="M96.7068 40.3532H92.1258L91.3206 42.2214C91.1237 42.6884 91.0164 43.0297 91.0164 43.2632C91.0164 43.4428 91.1058 43.6045 91.2669 43.7482C91.4458 43.8919 91.8037 43.9817 92.3764 44.0176V44.341H88.6543V44.0176C89.1553 43.9278 89.4774 43.8201 89.6206 43.6763C89.9248 43.3889 90.2469 42.8321 90.6048 41.9699L94.7742 32.1802H95.0784L99.2121 42.0777C99.5521 42.868 99.8384 43.3889 100.107 43.6225C100.375 43.856 100.751 43.9997 101.234 44.0176V44.341H96.5637V44.0176C97.0289 43.9997 97.351 43.9099 97.5121 43.7841C97.6732 43.6404 97.7626 43.4788 97.7626 43.2991C97.7626 43.0476 97.6374 42.6345 97.4226 42.0777L96.7068 40.3532ZM96.4563 39.7066L94.4521 34.8926L92.3943 39.7066H96.4563Z" fill="white"/>
</g>
<defs>
<clipPath id="clip0_2939_6914">
<rect width="163.341" height="96.2266" fill="white" transform="translate(0.595215 0.0625)"/>
</clipPath>
</defs>
</svg>
